# xmcd CD database file
#
# Track frame offsets:
#	150
#	23542
#	56890
#	83122
#	111347
#	161257
#	194910
#	218270
#
# Disc length: 3220 seconds
#
# Revision: 3
# Processed by: cddbd v1.5.2PL0 Copyright (c) Steve Scherf et al.
# Submitted via: CDex 1.51
#
DISCID=640c9208
DTITLE=Top Jazz 2003 - Top Jazz 2003
DYEAR=2004
DGENRE=Jazz
TTITLE0=Gianluca Trovesi: African Triptych/Wide Lake
TTITLE1=Enrico Pieranunzi trio: Waltz for a Future Movie
TTITLE2=Doctor 3: Barcarolle/Winter 3
TTITLE3=Francesco Bearzatti: H. C.
TTITLE4=Uri Caine: Dark Flame
TTITLE5=Jarrett-Peacock-DeJohnette: Butch and Butch
TTITLE6=Jason Moran: Gangsterism On stage
TTITLE7=Roach-Ibrahim: Streams of Consciousness (frammento)
EXTD=YEAR: 2004
EXTT0=
EXTT1=
EXTT2=
EXTT3=
EXTT4=
EXTT5=
EXTT6=
EXTT7=
PLAYORDER=
